<?xml version="1.0" encoding="UTF-8"?>
<svg id="Layer_1" xmlns="http://www.w3.org/2000/svg" version="1.1" viewBox="0 0 350 60">
  <!-- Generator: Adobe Illustrator 29.0.0, SVG Export Plug-In . SVG Version: 2.1.0 Build 186)  -->
  <defs>
    <style>
      .st0 {
        fill: #2d9ed9;
      }

      .st1 {
        fill: #39b66a;
      }

      .st2 {
        fill: #181d23;
      }

      .st3 {
        fill: #fcb447;
      }
    </style>
  </defs>
  <path class="st1" d="M37.9,60c-8.3,0-15.1-6.7-15.1-15,0-8.2,6.7-14.8,15.1-14.8,8.3,0,15.1,6.7,15.1,15,0,8.2-6.8,14.9-15.1,14.9Z"/>
  <path class="st3" d="M14,4.5c-7.2,19.8-3.8,37.6,10.4,53.5-1.3,0-2.4-.2-3.4-1.1-8.6-8.1-14.1-17.9-16.4-29.5-.6-3.3-.8-6.7-.9-10.1,0-1.8.4-3.3,1.5-4.7,2.1-3.1,6.2-6.9,8.7-8.1Z"/>
  <path class="st0" d="M37.6.8c1.5.5,3,1,4.5,1.5.3.3.7.5,1.1.6,0,0,0,.1,0,.2-.3,0-.6.2-.8.3-1.5.3-2.8.9-4.2,1.4-6.9,3-12.3,7.8-16.1,14.3-3.8,6.5-5.2,13.5-4.7,21-.6-.9-.7-1.9-.8-2.9-2.1-13.3,1.4-25,10.3-35.3C29-.7,31.4.1,33.8.2c1.3,0,2.5.4,3.8.6Z"/>
  <path class="st3" d="M23.9,27c5.4-9.8,13.6-15.6,24.9-17,.3,0,.5-.1.8-.1,2.3-.4,4.2-.1,5.7,2.2,1.7,2.7,3.7,6.3,4.4,9.5-5.8-4.1-12.2-5.6-19-4.5-6.9,1.1-12.4,4.6-16.7,10Z"/>
  <path class="st0" d="M36.5,23.7c1.8-.9,3.7-1.3,5.6-1.3,7.8-.3,14.1,2.7,18.8,9,.8,1.1.6,2.1.4,3.1-.6,3-1.5,5.9-3.2,8.8-.3-5.9-2.4-10.8-6.6-14.6-4.2-3.8-9.2-5.4-14.9-5.1Z"/>
  <path class="st0" d="M12.4,52.9C4.1,48-1.6,35,.4,25.1c1.4,10.6,5.5,19.7,12,27.7Z"/>
  <g>
    <path class="st2" d="M91.2,44.4c-3.1,0-5.5-.8-7.2-2.3s-2.6-3.7-2.6-6.5v-1.7h6.6v1.8c0,1.2.3,2.1.8,2.6.6.6,1.3.9,2.3.9s1.8-.3,2.3-.9.8-1.5.8-2.7v-19.2h6.5v19.1c0,2.8-.8,5-2.5,6.6-1.7,1.5-4.1,2.3-7.1,2.3Z"/>
    <path class="st2" d="M114.9,44.5c-2.2,0-4.1-.4-5.6-1.3s-2.8-2.1-3.6-3.7-1.3-3.5-1.3-5.6.4-4,1.3-5.6,2-2.8,3.6-3.7,3.4-1.3,5.6-1.3,4.1.4,5.6,1.3c1.6.9,2.8,2.1,3.6,3.7.8,1.6,1.3,3.5,1.3,5.6s-.4,4-1.3,5.6c-.8,1.6-2,2.8-3.6,3.7-1.6.9-3.4,1.3-5.6,1.3ZM114.9,39.5c.8,0,1.5-.2,2.1-.7.6-.5,1-1.2,1.3-2s.4-1.9.4-3-.1-2.2-.4-3-.7-1.5-1.3-2c-.6-.5-1.3-.7-2.1-.7s-1.5.2-2.1.7c-.6.5-1,1.1-1.3,2s-.4,1.9-.4,3,.1,2.2.4,3,.7,1.5,1.3,2c.6.5,1.3.7,2.1.7Z"/>
    <path class="st2" d="M136.2,44.3c-1.5,0-2.7-.3-3.8-1-1.1-.6-1.9-1.5-2.5-2.7-.6-1.2-.9-2.5-.9-4.1v-13.2h6.5v11.9c0,1.2.3,2.1.9,2.7.6.7,1.4,1,2.5,1s1.3-.2,1.9-.5c.5-.3.9-.7,1.2-1.3.3-.6.4-1.3.4-2.1v-11.8h6.5v20.7h-6.1v-5.2c-.1,0,.2,0,.2,0-.5,1.7-1.3,3-2.4,4-1.1,1-2.6,1.5-4.4,1.5Z"/>
    <path class="st2" d="M153.3,44.1v-20.7h6.3v3.8h.2c.4-1.4,1-2.4,1.9-3,.9-.7,1.9-1,3-1s.6,0,.9,0c.3,0,.6,0,.9.2v5.6c-.3-.1-.7-.2-1.2-.2s-1,0-1.4,0c-.8,0-1.5.2-2.2.5-.6.4-1.1.8-1.5,1.5-.4.6-.5,1.3-.5,2.2v11.3h-6.5Z"/>
    <path class="st2" d="M176,32.3v11.8h-6.5v-20.7h6.1v5.2c.1,0-.1,0-.1,0,.5-1.6,1.3-3,2.4-4,1.1-1,2.6-1.5,4.4-1.5s2.7.3,3.8,1,1.9,1.5,2.5,2.7c.6,1.2.9,2.5.9,4.1v13.2h-6.5v-11.9c0-1.2-.3-2.1-.9-2.7s-1.4-1-2.5-1-1.3.2-1.9.5c-.5.3-1,.7-1.3,1.3-.3.6-.4,1.3-.4,2.1Z"/>
    <path class="st2" d="M203.6,44.5c-2.2,0-4.1-.4-5.6-1.3-1.6-.9-2.8-2.1-3.6-3.7-.8-1.6-1.3-3.5-1.3-5.7s.4-4,1.3-5.6,2-2.9,3.6-3.8,3.4-1.3,5.5-1.3,2.8.2,4,.7c1.2.5,2.3,1.1,3.2,2s1.6,2,2.1,3.3c.5,1.3.7,2.8.7,4.5v1.6h-18.1v-3.8h15l-3,.9c0-1-.1-1.8-.4-2.5-.3-.7-.7-1.2-1.3-1.6-.6-.4-1.3-.6-2.1-.6s-1.6.2-2.2.6c-.6.4-1,.9-1.3,1.6s-.5,1.5-.5,2.4v2.7c0,1.1.2,1.9.5,2.7s.9,1.2,1.5,1.6c.6.4,1.4.5,2.2.5s1.1,0,1.6-.2c.5-.2.9-.4,1.2-.7.3-.3.6-.7.8-1.2l5.8.9c-.3,1.2-1,2.2-1.8,3.1-.9.9-1.9,1.6-3.2,2-1.3.5-2.8.7-4.5.7Z"/>
    <path class="st2" d="M216.1,51.3l1.5-4.7.8.2c.8.2,1.5.3,2.1.2.6,0,1-.3,1.4-.6s.5-.8.4-1.4v-.9s-7.8-20.7-7.8-20.7h6.9l3.1,10.1c.4,1.4.8,2.8,1,4.2s.5,2.9.9,4.5h-1.3c.3-1.6.7-3.1,1-4.5.3-1.4.7-2.8,1.2-4.1l3.3-10.1h6.8l-8.8,22.9c-.4,1.1-1,2.1-1.7,3-.7.9-1.6,1.5-2.6,2-1.1.5-2.4.7-4,.7s-1.6,0-2.3-.2c-.7-.1-1.4-.3-1.8-.5Z"/>
    <path class="st1" d="M239.9,44.1v-27.6h7.3l7.8,12.5c.5.8,1,1.7,1.5,2.6.5.9,1,1.9,1.4,2.9.5,1.1,1,2.3,1.4,3.7h-.6c0-1-.2-2.1-.2-3.4s-.2-2.4-.2-3.6c0-1.2,0-2.2,0-3v-11.7h6.8v27.6h-7.3l-7.1-11.4c-.6-1-1.2-2-1.7-3s-1-2-1.6-3.1c-.5-1.1-1.1-2.4-1.8-3.9h.8c0,1.3.2,2.6.3,3.9,0,1.3.1,2.4.2,3.4s0,1.9,0,2.6v11.4h-6.8Z"/>
    <path class="st1" d="M278.9,44.5c-2.2,0-4.1-.4-5.6-1.3s-2.8-2.1-3.6-3.7-1.3-3.5-1.3-5.6.4-4,1.3-5.6,2-2.8,3.6-3.7,3.4-1.3,5.6-1.3,4.1.4,5.6,1.3c1.6.9,2.8,2.1,3.6,3.7.8,1.6,1.3,3.5,1.3,5.6s-.4,4-1.3,5.6c-.8,1.6-2,2.8-3.6,3.7-1.6.9-3.4,1.3-5.6,1.3ZM278.9,39.5c.8,0,1.5-.2,2.1-.7.6-.5,1-1.2,1.3-2s.4-1.9.4-3-.1-2.2-.4-3-.7-1.5-1.3-2c-.6-.5-1.3-.7-2.1-.7s-1.5.2-2.1.7c-.6.5-1,1.1-1.3,2s-.4,1.9-.4,3,.1,2.2.4,3,.7,1.5,1.3,2c.6.5,1.3.7,2.1.7Z"/>
    <path class="st1" d="M304.2,23.4v4.8h-13.1v-4.8h13.1ZM293.9,18.4h6.5v19.3c0,.5.1.9.4,1.2s.7.4,1.3.4.5,0,.9,0c.4,0,.7,0,.9-.1l.8,4.7c-.7.2-1.4.4-2.1.4-.7,0-1.3.1-1.9.1-2.2,0-3.9-.5-5-1.5-1.1-1-1.7-2.5-1.7-4.5v-19.9Z"/>
    <path class="st1" d="M316.9,44.5c-2.2,0-4.1-.4-5.6-1.3-1.6-.9-2.8-2.1-3.6-3.7-.8-1.6-1.3-3.5-1.3-5.7s.4-4,1.3-5.6,2-2.9,3.6-3.8,3.4-1.3,5.5-1.3,2.8.2,4,.7c1.2.5,2.3,1.1,3.2,2s1.6,2,2.1,3.3c.5,1.3.7,2.8.7,4.5v1.6h-18.1v-3.8h15l-3,.9c0-1-.1-1.8-.4-2.5-.3-.7-.7-1.2-1.3-1.6-.6-.4-1.3-.6-2.1-.6s-1.6.2-2.2.6c-.6.4-1,.9-1.3,1.6s-.5,1.5-.5,2.4v2.7c0,1.1.2,1.9.5,2.7s.9,1.2,1.5,1.6c.6.4,1.4.5,2.2.5s1.1,0,1.6-.2c.5-.2.9-.4,1.2-.7.3-.3.6-.7.8-1.2l5.8.9c-.3,1.2-1,2.2-1.8,3.1-.9.9-1.9,1.6-3.2,2-1.3.5-2.8.7-4.5.7Z"/>
    <path class="st1" d="M339,44.5c-1.8,0-3.4-.2-4.7-.8-1.4-.5-2.5-1.2-3.3-2.2-.9-.9-1.4-2.1-1.7-3.4l6.1-.9c.3.9.7,1.6,1.3,2,.6.5,1.5.7,2.6.7s1.6-.2,2.2-.5c.5-.3.8-.7.8-1.3s-.2-.9-.6-1.2c-.4-.3-1.1-.5-1.9-.7l-3.6-.7c-2.1-.4-3.6-1.1-4.6-2.1-1-1-1.5-2.3-1.5-3.9s.4-2.6,1.1-3.5c.8-1,1.8-1.7,3.2-2.2,1.4-.5,3-.8,4.9-.8s3.3.2,4.6.7c1.3.5,2.3,1.1,3.1,2s1.3,1.9,1.5,3.1l-5.8.9c-.2-.7-.6-1.2-1.2-1.6-.6-.4-1.3-.6-2.2-.6s-1.4.2-2,.5c-.5.3-.8.7-.8,1.3s.2.8.5,1.1c.3.3,1,.6,1.9.7l4,.7c2.1.4,3.6,1,4.6,2s1.5,2.1,1.5,3.6-.4,2.7-1.3,3.7-2,1.9-3.5,2.4c-1.5.6-3.2.9-5.1.9Z"/>
  </g>
</svg>